<mxfile host="65bd71144e">
    <diagram id="88pZRFUGG9QtHxRsaTs1" name="Page-1">
        <mxGraphModel dx="988" dy="918" grid="1" gridSize="10" guides="1" tooltips="1" connect="1" arrows="1" fold="1" page="0" pageScale="1" pageWidth="690" pageHeight="980" math="0" shadow="0">
            <root>
                <mxCell id="0"/>
                <mxCell id="1" parent="0"/>
                <mxCell id="2" value="node" style="rounded=1;whiteSpace=wrap;html=1;strokeWidth=2;strokeColor=#0066ff;fillColor=#FFFFFF;fontColor=#0066ff;" parent="1" vertex="1">
                    <mxGeometry x="40" y="240" width="40" height="80" as="geometry"/>
                </mxCell>
                <mxCell id="3" value="node" style="rounded=1;whiteSpace=wrap;html=1;strokeWidth=2;strokeColor=#0066ff;fillColor=#FFFFFF;fontColor=#0066ff;" parent="1" vertex="1">
                    <mxGeometry x="90" y="240" width="40" height="80" as="geometry"/>
                </mxCell>
                <mxCell id="4" value="node" style="rounded=1;whiteSpace=wrap;html=1;strokeWidth=2;strokeColor=#0066ff;fillColor=#FFFFFF;fontColor=#0066ff;" parent="1" vertex="1">
                    <mxGeometry x="140" y="240" width="40" height="80" as="geometry"/>
                </mxCell>
                <mxCell id="5" value="node" style="rounded=1;whiteSpace=wrap;html=1;strokeWidth=2;strokeColor=#0066ff;fillColor=#FFFFFF;fontColor=#0066ff;" parent="1" vertex="1">
                    <mxGeometry x="190" y="240" width="40" height="80" as="geometry"/>
                </mxCell>
                <mxCell id="6" value="node" style="rounded=1;whiteSpace=wrap;html=1;strokeWidth=2;strokeColor=#0066ff;fillColor=#FFFFFF;fontColor=#0066ff;" parent="1" vertex="1">
                    <mxGeometry x="240" y="240" width="40" height="80" as="geometry"/>
                </mxCell>
                <mxCell id="7" value="node" style="rounded=1;whiteSpace=wrap;html=1;strokeWidth=2;strokeColor=#0066ff;fillColor=#FFFFFF;fontColor=#0066ff;" parent="1" vertex="1">
                    <mxGeometry x="290" y="240" width="40" height="80" as="geometry"/>
                </mxCell>
                <mxCell id="8" value="node" style="rounded=1;whiteSpace=wrap;html=1;strokeWidth=2;strokeColor=#0066ff;fillColor=#FFFFFF;fontColor=#0066ff;" parent="1" vertex="1">
                    <mxGeometry x="340" y="240" width="40" height="80" as="geometry"/>
                </mxCell>
                <mxCell id="9" value="Deckhouse Virtualization" style="rounded=1;whiteSpace=wrap;html=1;strokeWidth=2;strokeColor=#0066ff;fillColor=#0066ff;fontColor=#FFFFFF;" parent="1" vertex="1">
                    <mxGeometry x="40" y="200" width="340" height="30" as="geometry"/>
                </mxCell>
                <mxCell id="10" value="" style="rounded=1;whiteSpace=wrap;html=1;strokeWidth=2;strokeColor=#0066ff;fillColor=#FFFFFF;fontColor=#0066ff;arcSize=6;" parent="1" vertex="1">
                    <mxGeometry x="40" y="-80" width="340" height="270" as="geometry"/>
                </mxCell>
                <mxCell id="11" value="" style="rounded=1;whiteSpace=wrap;html=1;dashed=1;strokeWidth=2;strokeColor=#0066ff;fillColor=none;fontColor=#0066ff;arcSize=6;" parent="1" vertex="1">
                    <mxGeometry x="50" y="-70" width="320" height="250" as="geometry"/>
                </mxCell>
                <mxCell id="12" value="namespace/tenant #1" style="text;html=1;align=left;verticalAlign=middle;whiteSpace=wrap;rounded=0;strokeWidth=2;strokeColor=none;fillColor=none;fontColor=#0066ff;" parent="1" vertex="1">
                    <mxGeometry x="75" y="-70" width="190" height="20" as="geometry"/>
                </mxCell>
                <mxCell id="37" style="edgeStyle=none;html=1;exitX=0.5;exitY=0;exitDx=0;exitDy=0;entryX=0.8;entryY=0.8;entryDx=0;entryDy=0;entryPerimeter=0;endArrow=none;endFill=0;strokeWidth=2;fontColor=#0066ff;strokeColor=#0066ff;fillColor=#f5f5f5;" parent="1" source="13" target="34" edge="1">
                    <mxGeometry relative="1" as="geometry">
                        <mxPoint x="206" y="86" as="targetPoint"/>
                    </mxGeometry>
                </mxCell>
                <mxCell id="13" value="pod" style="rounded=1;whiteSpace=wrap;html=1;strokeWidth=2;strokeColor=#0066ff;fillColor=none;fontColor=#0066ff;" parent="1" vertex="1">
                    <mxGeometry x="260" y="106" width="40" height="40" as="geometry"/>
                </mxCell>
                <mxCell id="35" style="edgeStyle=none;html=1;exitX=0.5;exitY=1;exitDx=0;exitDy=0;entryX=0.4;entryY=0.1;entryDx=0;entryDy=0;entryPerimeter=0;endArrow=none;endFill=0;strokeWidth=2;fontColor=#0066ff;strokeColor=#0066ff;fillColor=#f5f5f5;" parent="1" source="14" target="34" edge="1">
                    <mxGeometry relative="1" as="geometry"/>
                </mxCell>
                <mxCell id="14" value="vm" style="rounded=1;whiteSpace=wrap;html=1;strokeWidth=2;strokeColor=#0066ff;fillColor=none;fontColor=#0066ff;" parent="1" vertex="1">
                    <mxGeometry x="150" y="-44" width="40" height="40" as="geometry"/>
                </mxCell>
                <mxCell id="38" style="edgeStyle=none;html=1;exitX=0;exitY=0.5;exitDx=0;exitDy=0;entryX=0.875;entryY=0.5;entryDx=0;entryDy=0;entryPerimeter=0;endArrow=none;endFill=0;strokeWidth=2;fontColor=#0066ff;strokeColor=#0066ff;fillColor=#f5f5f5;" parent="1" source="15" target="34" edge="1">
                    <mxGeometry relative="1" as="geometry"/>
                </mxCell>
                <mxCell id="15" value="vm" style="rounded=1;whiteSpace=wrap;html=1;strokeWidth=2;strokeColor=#0066ff;fillColor=none;fontColor=#0066ff;" parent="1" vertex="1">
                    <mxGeometry x="300" y="3" width="40" height="40" as="geometry"/>
                </mxCell>
                <mxCell id="27" style="edgeStyle=none;html=1;exitX=0;exitY=0.75;exitDx=0;exitDy=0;entryX=1;entryY=0.5;entryDx=0;entryDy=0;strokeWidth=2;fontColor=#0066ff;strokeColor=#0066ff;fillColor=#f5f5f5;" parent="1" source="25" target="11" edge="1">
                    <mxGeometry relative="1" as="geometry"/>
                </mxCell>
                <mxCell id="25" value="" style="shape=actor;whiteSpace=wrap;html=1;strokeWidth=2;strokeColor=#0066ff;fillColor=#f5f5f5;fontColor=#0066ff;" parent="1" vertex="1">
                    <mxGeometry x="406" y="27" width="24" height="37" as="geometry"/>
                </mxCell>
                <mxCell id="26" value="user group" style="text;html=1;align=center;verticalAlign=middle;whiteSpace=wrap;rounded=0;strokeWidth=2;strokeColor=none;fillColor=none;fontColor=#0066ff;" parent="1" vertex="1">
                    <mxGeometry x="398" y="74" width="51" height="35" as="geometry"/>
                </mxCell>
                <mxCell id="28" value="" style="shape=actor;whiteSpace=wrap;html=1;strokeWidth=2;strokeColor=#0066ff;fillColor=#f5f5f5;fontColor=#0066ff;" parent="1" vertex="1">
                    <mxGeometry x="416" y="37" width="24" height="37" as="geometry"/>
                </mxCell>
                <mxCell id="36" style="edgeStyle=none;html=1;exitX=1;exitY=0.5;exitDx=0;exitDy=0;entryX=0.07;entryY=0.4;entryDx=0;entryDy=0;entryPerimeter=0;endArrow=none;endFill=0;strokeWidth=2;fontColor=#0066ff;strokeColor=#0066ff;fillColor=#f5f5f5;" parent="1" source="33" target="34" edge="1">
                    <mxGeometry relative="1" as="geometry"/>
                </mxCell>
                <mxCell id="33" value="pod" style="rounded=1;whiteSpace=wrap;html=1;strokeWidth=2;strokeColor=#0066ff;fillColor=none;fontColor=#0066ff;" parent="1" vertex="1">
                    <mxGeometry x="70" y="26" width="40" height="40" as="geometry"/>
                </mxCell>
                <mxCell id="34" value="network" style="ellipse;shape=cloud;whiteSpace=wrap;html=1;strokeWidth=2;strokeColor=#0066ff;fillColor=none;fontColor=#0066ff;" parent="1" vertex="1">
                    <mxGeometry x="140" y="11.5" width="120" height="80" as="geometry"/>
                </mxCell>
                <mxCell id="42" style="edgeStyle=none;html=1;exitX=1;exitY=0.5;exitDx=0;exitDy=0;entryX=0;entryY=0.5;entryDx=0;entryDy=0;endArrow=none;endFill=0;strokeWidth=2;fontColor=#0066ff;strokeColor=#0066ff;fillColor=#f5f5f5;" parent="1" source="39" target="40" edge="1">
                    <mxGeometry relative="1" as="geometry"/>
                </mxCell>
                <mxCell id="39" value="server" style="rounded=1;whiteSpace=wrap;html=1;strokeWidth=2;strokeColor=#0066ff;fillColor=#FFFFFF;fontColor=#0066ff;" parent="1" vertex="1">
                    <mxGeometry x="-40" y="115" width="40" height="40" as="geometry"/>
                </mxCell>
                <mxCell id="41" style="edgeStyle=none;html=1;exitX=0.5;exitY=0;exitDx=0;exitDy=0;entryX=0.31;entryY=0.8;entryDx=0;entryDy=0;entryPerimeter=0;endArrow=none;endFill=0;strokeWidth=2;fontColor=#0066ff;strokeColor=#0066ff;fillColor=#f5f5f5;" parent="1" source="40" target="34" edge="1">
                    <mxGeometry relative="1" as="geometry"/>
                </mxCell>
                <mxCell id="40" value="service" style="rounded=1;whiteSpace=wrap;html=1;strokeWidth=2;strokeColor=#0066ff;fillColor=none;fontColor=#0066ff;" parent="1" vertex="1">
                    <mxGeometry x="140" y="115" width="40" height="40" as="geometry"/>
                </mxCell>
            </root>
        </mxGraphModel>
    </diagram>
</mxfile>
